{
.appVersion = "3087";
.formatVersion = 3;
date = "2022-08-13 07:19:43 +0000";
familyName = "Sero Sans";
fontMaster = (
{
id = m01;
metricValues = (
{
over = 10;
pos = 800;
},
{
over = 10;
pos = 650;
},
{
over = 10;
pos = 477;
},
{
over = -10;
},
{
over = -16;
pos = -200;
},
{
over = -16;
}
);
name = Regular;
stemValues = (
50
);
}
);
glyphs = (
{
glyphname = A;
lastChange = "2022-08-14 07:06:31 +0000";
layers = (
{
layerId = m01;
shapes = (
{
closed = 1;
nodes = (
(86,0,l),
(262,650,l),
(206,650,l),
(30,0,l)
);
},
{
closed = 1;
nodes = (
(377,171,l),
(377,226,l),
(112,226,l),
(112,171,l)
);
},
{
closed = 1;
nodes = (
(458,0,l),
(283,650,l),
(227,650,l),
(402,0,l)
);
}
);
width = 488;
}
);
unicode = 65;
},
{
glyphname = B;
lastChange = "2022-08-14 07:07:43 +0000";
layers = (
{
layerId = m01;
shapes = (
{
closed = 1;
nodes = (
(83,595,l),
(241,595,ls),
(306,595,o),
(358,543,o),
(358,477,cs),
(358,412,o),
(304,360,o),
(241,360,cs),
(97,360,l),
(97,305,l),
(252,305,ls),
(321,305,o),
(377,250,o),
(377,179,cs),
(377,110,o),
(319,55,o),
(252,55,cs),
(89,55,l),
(89,0,l),
(252,0,ls),
(349,0,o),
(432,79,o),
(432,179,cs),
(432,253,o),
(389,315,o),
(307,344,c),
(308,329,l),
(378,359,o),
(413,414,o),
(413,477,cs),
(413,574,o),
(337,650,o),
(241,650,cs),
(83,650,l)
);
},
{
closed = 1;
nodes = (
(55,650,l),
(55,0,l),
(110,0,l),
(110,650,l)
);
}
);
width = 462;
}
);
unicode = 66;
},
{
glyphname = C;
lastChange = "2022-08-14 07:06:31 +0000";
layers = (
{
layerId = m01;
shapes = (
{
closed = 1;
nodes = (
(342,-10,o),
(424,74,o),
(424,176,c),
(369,176,l),
(369,104,o),
(311,45,o),
(240,45,cs),
(169,45,o),
(110,104,o),
(110,176,cs),
(110,475,ls),
(110,547,o),
(169,605,o),
(240,605,cs),
(311,605,o),
(369,547,o),
(369,475,c),
(424,475,l),
(424,578,o),
(342,660,o),
(240,660,cs),
(139,660,o),
(55,578,o),
(55,475,cs),
(55,176,ls),
(55,73,o),
(138,-10,o),
(240,-10,cs)
);
}
);
width = 479;
}
);
unicode = 67;
},
{
glyphname = D;
lastChange = "2022-08-14 07:06:31 +0000";
layers = (
{
layerId = m01;
shapes = (
{
closed = 1;
nodes = (
(230,0,ls),
(332,0,o),
(414,84,o),
(414,186,cs),
(414,465,ls),
(414,568,o),
(332,650,o),
(230,650,cs),
(55,650,l),
(55,0,l)
);
},
{
closed = 1;
nodes = (
(110,595,l),
(230,595,ls),
(301,595,o),
(359,537,o),
(359,465,cs),
(359,186,ls),
(359,114,o),
(301,55,o),
(230,55,cs),
(110,55,l)
);
}
);
width = 469;
}
);
unicode = 68;
},
{
glyphname = E;
lastChange = "2022-08-14 07:06:31 +0000";
layers = (
{
layerId = m01;
shapes = (
{
closed = 1;
nodes = (
(394,0,l),
(394,55,l),
(105,55,l),
(105,308,l),
(331,308,l),
(331,363,l),
(105,363,l),
(105,595,l),
(394,595,l),
(394,650,l),
(50,650,l),
(50,0,l)
);
}
);
width = 424;
}
);
unicode = 69;
},
{
glyphname = F;
lastChange = "2022-08-14 07:06:31 +0000";
layers = (
{
layerId = m01;
shapes = (
{
closed = 1;
nodes = (
(105,0,l),
(105,288,l),
(341,288,l),
(341,343,l),
(105,343,l),
(105,595,l),
(394,595,l),
(394,650,l),
(50,650,l),
(50,0,l)
);
}
);
width = 424;
}
);
unicode = 70;
},
{
glyphname = G;
lastChange = "2022-08-14 07:06:31 +0000";
layers = (
{
layerId = m01;
shapes = (
{
closed = 1;
nodes = (
(342,-10,o),
(424,74,o),
(424,176,cs),
(424,353,l),
(369,353,l),
(369,176,ls),
(369,104,o),
(311,45,o),
(240,45,cs),
(169,45,o),
(110,104,o),
(110,176,cs),
(110,475,ls),
(110,547,o),
(169,605,o),
(240,605,cs),
(311,605,o),
(369,547,o),
(369,475,c),
(424,475,l),
(424,578,o),
(342,660,o),
(240,660,cs),
(139,660,o),
(55,578,o),
(55,475,cs),
(55,176,ls),
(55,73,o),
(138,-10,o),
(240,-10,cs)
);
},
{
closed = 1;
nodes = (
(411,298,l),
(411,353,l),
(242,353,l),
(242,298,l)
);
}
);
width = 479;
}
);
unicode = 71;
},
{
glyphname = H;
lastChange = "2022-08-14 07:06:31 +0000";
layers = (
{
layerId = m01;
shapes = (
{
closed = 1;
nodes = (
(419,0,l),
(419,650,l),
(364,650,l),
(364,0,l)
);
},
{
closed = 1;
nodes = (
(105,0,l),
(105,650,l),
(50,650,l),
(50,0,l)
);
},
{
closed = 1;
nodes = (
(388,308,l),
(388,363,l),
(64,363,l),
(64,308,l)
);
}
);
width = 469;
}
);
unicode = 72;
},
{
glyphname = I;
lastChange = "2022-08-14 07:06:31 +0000";
layers = (
{
layerId = m01;
shapes = (
{
closed = 1;
nodes = (
(105,0,l),
(105,650,l),
(50,650,l),
(50,0,l)
);
}
);
width = 155;
}
);
unicode = 73;
},
{
glyphname = J;
lastChange = "2022-08-14 07:06:31 +0000";
layers = (
{
layerId = m01;
shapes = (
{
closed = 1;
nodes = (
(317,-10,o),
(399,74,o),
(399,176,cs),
(399,650,l),
(344,650,l),
(344,176,ls),
(344,104,o),
(286,45,o),
(215,45,cs),
(144,45,o),
(85,104,o),
(85,176,c),
(30,176,l),
(30,73,o),
(113,-10,o),
(215,-10,cs)
);
}
);
width = 454;
}
);
unicode = 74;
},
{
glyphname = K;
lastChange = "2022-08-14 07:06:31 +0000";
layers = (
{
layerId = m01;
shapes = (
{
closed = 1;
nodes = (
(426,650,l),
(356,650,l),
(60,261,l),
(104,227,l)
);
},
{
closed = 1;
nodes = (
(110,0,l),
(110,650,l),
(55,650,l),
(55,0,l)
);
},
{
closed = 1;
nodes = (
(423,0,l),
(208,375,l),
(160,347,l),
(359,0,l)
);
}
);
width = 456;
}
);
unicode = 75;
},
{
glyphname = L;
lastChange = "2022-08-14 07:06:31 +0000";
layers = (
{
layerId = m01;
shapes = (
{
closed = 1;
nodes = (
(394,0,l),
(394,55,l),
(105,55,l),
(105,650,l),
(50,650,l),
(50,0,l)
);
}
);
width = 425;
}
);
unicode = 76;
},
{
glyphname = M;
lastChange = "2022-08-14 07:06:31 +0000";
layers = (
{
layerId = m01;
shapes = (
{
closed = 1;
nodes = (
(138,650,l),
(80,650,l),
(255,60,l),
(313,60,l)
);
},
{
closed = 1;
nodes = (
(110,0,l),
(110,650,l),
(55,650,l),
(55,0,l)
);
},
{
closed = 1;
nodes = (
(324,60,l),
(498,650,l),
(440,650,l),
(266,60,l)
);
},
{
closed = 1;
nodes = (
(530,0,l),
(530,650,l),
(475,650,l),
(475,0,l)
);
}
);
width = 585;
}
);
unicode = 77;
},
{
glyphname = N;
lastChange = "2022-08-14 07:06:31 +0000";
layers = (
{
layerId = m01;
shapes = (
{
closed = 1;
nodes = (
(421,0,l),
(140,650,l),
(80,650,l),
(361,0,l)
);
},
{
closed = 1;
nodes = (
(110,0,l),
(110,650,l),
(55,650,l),
(55,0,l)
);
},
{
closed = 1;
nodes = (
(446,0,l),
(446,650,l),
(391,650,l),
(391,0,l)
);
}
);
width = 501;
}
);
unicode = 78;
},
{
glyphname = O;
lastChange = "2022-08-14 07:06:31 +0000";
layers = (
{
layerId = m01;
shapes = (
{
closed = 1;
nodes = (
(342,-10,o),
(424,74,o),
(424,176,cs),
(424,475,ls),
(424,578,o),
(342,660,o),
(240,660,cs),
(139,660,o),
(55,578,o),
(55,475,cs),
(55,176,ls),
(55,73,o),
(138,-10,o),
(240,-10,cs)
);
},
{
closed = 1;
nodes = (
(169,45,o),
(110,104,o),
(110,176,cs),
(110,475,ls),
(110,547,o),
(169,605,o),
(240,605,cs),
(311,605,o),
(369,547,o),
(369,475,cs),
(369,176,ls),
(369,104,o),
(311,45,o),
(240,45,cs)
);
}
);
width = 479;
}
);
unicode = 79;
},
{
glyphname = P;
lastChange = "2022-08-14 07:06:31 +0000";
layers = (
{
layerId = m01;
shapes = (
{
closed = 1;
nodes = (
(110,0,l),
(110,595,l),
(240,595,ls),
(311,595,o),
(369,537,o),
(369,465,cs),
(369,393,o),
(311,335,o),
(240,335,cs),
(97,335,l),
(97,280,l),
(240,280,ls),
(342,280,o),
(424,362,o),
(424,465,cs),
(424,568,o),
(342,650,o),
(240,650,cs),
(55,650,l),
(55,0,l)
);
}
);
width = 479;
}
);
unicode = 80;
},
{
glyphname = Q;
lastChange = "2022-08-14 07:06:31 +0000";
layers = (
{
layerId = m01;
shapes = (
{
closed = 1;
nodes = (
(342,-10,o),
(424,74,o),
(424,176,cs),
(424,475,ls),
(424,578,o),
(342,660,o),
(240,660,cs),
(139,660,o),
(55,578,o),
(55,475,cs),
(55,176,ls),
(55,73,o),
(138,-10,o),
(240,-10,cs)
);
},
{
closed = 1;
nodes = (
(418,-69,l),
(274,154,l),
(208,154,l),
(352,-69,l)
);
},
{
closed = 1;
nodes = (
(169,45,o),
(110,104,o),
(110,176,cs),
(110,475,ls),
(110,547,o),
(169,605,o),
(240,605,cs),
(311,605,o),
(369,547,o),
(369,475,cs),
(369,176,ls),
(369,104,o),
(311,45,o),
(240,45,cs)
);
}
);
width = 479;
}
);
unicode = 81;
},
{
glyphname = R;
lastChange = "2022-08-14 07:06:31 +0000";
layers = (
{
layerId = m01;
shapes = (
{
closed = 1;
nodes = (
(110,0,l),
(110,595,l),
(240,595,ls),
(311,595,o),
(369,537,o),
(369,465,cs),
(369,393,o),
(311,335,o),
(240,335,cs),
(97,335,l),
(97,280,l),
(240,280,ls),
(342,280,o),
(424,362,o),
(424,465,cs),
(424,568,o),
(342,650,o),
(240,650,cs),
(55,650,l),
(55,0,l)
);
},
{
closed = 1;
nodes = (
(424,3,l),
(297,303,l),
(237,303,l),
(364,3,l)
);
}
);
width = 479;
}
);
unicode = 82;
},
{
glyphname = S;
lastChange = "2022-08-14 07:06:31 +0000";
layers = (
{
layerId = m01;
shapes = (
{
closed = 1;
nodes = (
(354,0,o),
(424,79,o),
(424,174,cs),
(424,275,o),
(344,337,o),
(241,361,cs),
(162,380,o),
(113,418,o),
(113,492,cs),
(113,563,o),
(159,615,o),
(235,615,cs),
(306,615,o),
(351,570,o),
(360,516,c),
(415,516,l),
(409,593,o),
(340,670,o),
(234,670,cs),
(127,670,o),
(58,591,o),
(58,490,cs),
(58,386,o),
(132,333,o),
(228,309,cs),
(313,288,o),
(369,243,o),
(369,173,cs),
(369,108,o),
(321,55,o),
(238,55,cs),
(161,55,o),
(116,101,o),
(108,156,c),
(52,156,l),
(57,75,o),
(126,0,o),
(238,0,cs)
);
}
);
width = 479;
}
);
unicode = 83;
},
{
glyphname = T;
lastChange = "2022-08-14 07:06:31 +0000";
layers = (
{
layerId = m01;
shapes = (
{
closed = 1;
nodes = (
(239,0,l),
(239,650,l),
(184,650,l),
(184,0,l)
);
},
{
closed = 1;
nodes = (
(393,595,l),
(393,650,l),
(30,650,l),
(30,595,l)
);
}
);
width = 423;
}
);
unicode = 84;
},
{
glyphname = U;
lastChange = "2022-08-14 07:06:31 +0000";
layers = (
{
layerId = m01;
shapes = (
{
closed = 1;
nodes = (
(342,-10,o),
(424,74,o),
(424,176,cs),
(424,650,l),
(369,650,l),
(369,176,ls),
(369,104,o),
(311,45,o),
(240,45,cs),
(169,45,o),
(110,104,o),
(110,176,cs),
(110,650,l),
(55,650,l),
(55,176,ls),
(55,73,o),
(138,-10,o),
(240,-10,cs)
);
}
);
width = 479;
}
);
unicode = 85;
},
{
glyphname = V;
lastChange = "2022-08-14 07:06:31 +0000";
layers = (
{
layerId = m01;
shapes = (
{
closed = 1;
nodes = (
(262,0,l),
(86,650,l),
(30,650,l),
(206,0,l)
);
},
{
closed = 1;
nodes = (
(283,0,l),
(458,650,l),
(402,650,l),
(227,0,l)
);
}
);
width = 488;
}
);
unicode = 86;
},
{
glyphname = W;
lastChange = "2022-08-14 07:06:31 +0000";
layers = (
{
layerId = m01;
shapes = (
{
closed = 1;
nodes = (
(602,0,l),
(435,650,l),
(379,650,l),
(546,0,l)
);
},
{
closed = 1;
nodes = (
(243,0,l),
(86,650,l),
(30,650,l),
(187,0,l)
);
},
{
closed = 1;
nodes = (
(262,0,l),
(427,650,l),
(371,650,l),
(206,0,l)
);
},
{
closed = 1;
nodes = (
(620,0,l),
(776,650,l),
(720,650,l),
(564,0,l)
);
}
);
width = 806;
}
);
unicode = 87;
},
{
glyphname = X;
lastChange = "2022-08-14 07:06:31 +0000";
layers = (
{
layerId = m01;
shapes = (
{
closed = 1;
nodes = (
(426,0,l),
(99,650,l),
(37,650,l),
(364,0,l)
);
},
{
closed = 1;
nodes = (
(99,0,l),
(259,330,l),
(197,330,l),
(37,0,l)
);
},
{
closed = 1;
nodes = (
(266,321,l),
(426,650,l),
(364,650,l),
(204,321,l)
);
}
);
width = 479;
}
);
unicode = 88;
},
{
glyphname = Y;
lastChange = "2022-08-14 07:06:31 +0000";
layers = (
{
layerId = m01;
shapes = (
{
closed = 1;
nodes = (
(439,650,l),
(377,650,l),
(235,365,l),
(92,650,l),
(30,650,l),
(235,243,l)
);
},
{
closed = 1;
nodes = (
(262,0,l),
(262,328,l),
(207,328,l),
(207,0,l)
);
}
);
width = 469;
}
);
unicode = 89;
},
{
glyphname = Z;
lastChange = "2022-08-14 07:06:31 +0000";
layers = (
{
layerId = m01;
shapes = (
{
closed = 1;
nodes = (
(92,55,l),
(382,595,l),
(320,595,l),
(30,55,l)
);
},
{
closed = 1;
nodes = (
(393,0,l),
(393,55,l),
(30,55,l),
(30,0,l)
);
},
{
closed = 1;
nodes = (
(383,595,l),
(383,650,l),
(40,650,l),
(40,595,l)
);
}
);
width = 423;
}
);
unicode = 90;
},
{
glyphname = a;
lastChange = "2022-08-14 07:08:45 +0000";
layers = (
{
layerId = m01;
shapes = (
{
closed = 1;
nodes = (
(360,0,l),
(360,319,ls),
(360,412,o),
(285,487,o),
(193,487,cs),
(122,487,o),
(36,437,o),
(36,345,c),
(16,363,l),
(112,363,l),
(87,344,l),
(87,412,o),
(150,437,o),
(193,437,cs),
(257,437,o),
(310,384,o),
(310,319,cs),
(310,0,l)
);
},
{
closed = 1;
nodes = (
(201,-10,ls),
(289,-10,o),
(337,61,o),
(337,149,c),
(310,149,l),
(310,89,o),
(261,40,o),
(201,40,cs),
(167,40,ls),
(117,40,o),
(77,80,o),
(77,130,cs),
(77,180,o),
(117,220,o),
(167,220,cs),
(335,220,l),
(335,270,l),
(167,270,ls),
(89,270,o),
(27,208,o),
(27,130,cs),
(27,52,o),
(89,-10,o),
(167,-10,cs)
);
}
);
width = 410;
}
);
metricLeft = "2tt7";
unicode = 97;
},
{
glyphname = b;
lastChange = "2022-08-14 07:06:31 +0000";
layers = (
{
layerId = m01;
shapes = (
{
closed = 1;
nodes = (
(310,-10,o),
(386,66,o),
(386,158,cs),
(386,319,ls),
(386,411,o),
(310,487,o),
(218,487,cs),
(126,487,o),
(81,411,o),
(81,319,c),
(100,319,l),
(100,384,o),
(153,437,o),
(218,437,cs),
(283,437,o),
(336,384,o),
(336,319,cs),
(336,158,ls),
(336,93,o),
(283,40,o),
(218,40,cs),
(153,40,o),
(100,93,o),
(100,158,c),
(81,158,l),
(81,66,o),
(126,-10,o),
(218,-10,cs)
);
},
{
closed = 1;
nodes = (
(100,0,l),
(100,677,l),
(50,677,l),
(50,0,l)
);
}
);
width = 436;
}
);
unicode = 98;
},
{
glyphname = c;
lastChange = "2022-08-14 07:06:31 +0000";
layers = (
{
layerId = m01;
shapes = (
{
closed = 1;
nodes = (
(286,-10,o),
(369,42,o),
(376,129,c),
(323,129,l),
(316,71,o),
(270,40,o),
(217,40,cs),
(153,40,o),
(100,93,o),
(100,158,cs),
(100,319,ls),
(100,384,o),
(153,437,o),
(217,437,cs),
(270,437,o),
(316,406,o),
(323,348,c),
(376,348,l),
(369,435,o),
(286,487,o),
(217,487,cs),
(125,487,o),
(50,412,o),
(50,319,cs),
(50,158,ls),
(50,65,o),
(125,-10,o),
(217,-10,cs)
);
}
);
width = 406;
}
);
unicode = 99;
},
{
glyphname = d;
lastChange = "2022-08-14 07:06:31 +0000";
layers = (
{
layerId = m01;
shapes = (
{
closed = 1;
nodes = (
(310,-10,o),
(355,66,o),
(355,158,c),
(336,158,l),
(336,93,o),
(283,40,o),
(218,40,cs),
(153,40,o),
(100,93,o),
(100,158,cs),
(100,319,ls),
(100,384,o),
(153,437,o),
(218,437,cs),
(283,437,o),
(336,384,o),
(336,319,c),
(355,319,l),
(355,411,o),
(310,487,o),
(218,487,cs),
(126,487,o),
(50,411,o),
(50,319,cs),
(50,158,ls),
(50,66,o),
(126,-10,o),
(218,-10,cs)
);
},
{
closed = 1;
nodes = (
(386,0,l),
(386,677,l),
(336,677,l),
(336,0,l)
);
}
);
width = 436;
}
);
unicode = 100;
},
{
glyphname = e;
lastChange = "2022-08-14 07:09:01 +0000";
layers = (
{
layerId = m01;
shapes = (
{
closed = 1;
nodes = (
(290,-10,o),
(376,49,o),
(376,146,c),
(398,129,l),
(301,129,l),
(324,147,l),
(324,77,o),
(275,40,o),
(217,40,cs),
(153,40,o),
(100,93,o),
(100,158,cs),
(100,319,ls),
(100,384,o),
(153,437,o),
(217,437,cs),
(277,437,o),
(327,384,o),
(327,319,cs),
(327,268,l),
(377,268,l),
(377,319,ls),
(377,412,o),
(305,487,o),
(217,487,cs),
(125,487,o),
(50,412,o),
(50,319,cs),
(50,158,ls),
(50,65,o),
(125,-10,o),
(217,-10,cs)
);
},
{
closed = 1;
nodes = (
(377,227,l),
(377,277,l),
(75,277,l),
(75,227,l)
);
}
);
width = 407;
}
);
unicode = 101;
},
{
glyphname = f;
lastChange = "2022-08-14 07:06:31 +0000";
layers = (
{
layerId = m01;
shapes = (
{
closed = 1;
nodes = (
(154,0,l),
(154,559,ls),
(154,597,o),
(164,638,o),
(251,638,c),
(251,687,l),
(131,687,o),
(104,626,o),
(104,559,cs),
(104,0,l)
);
},
{
closed = 1;
nodes = (
(251,427,l),
(251,477,l),
(30,477,l),
(30,427,l)
);
}
);
width = 281;
}
);
unicode = 102;
},
{
glyphname = g;
lastChange = "2022-08-14 07:08:28 +0000";
layers = (
{
layerId = m01;
shapes = (
{
closed = 1;
nodes = (
(311,-210,o),
(386,-135,o),
(386,-42,cs),
(386,477,l),
(336,477,l),
(336,-42,ls),
(336,-107,o),
(283,-160,o),
(219,-160,cs),
(166,-160,o),
(113,-128,o),
(113,-69,c),
(138,-86,l),
(40,-86,l),
(60,-69,l),
(60,-157,o),
(149,-210,o),
(219,-210,cs)
);
},
{
closed = 1;
nodes = (
(310,-10,o),
(355,66,o),
(355,158,c),
(336,158,l),
(336,93,o),
(283,40,o),
(218,40,cs),
(153,40,o),
(100,93,o),
(100,158,cs),
(100,319,ls),
(100,384,o),
(153,437,o),
(218,437,cs),
(283,437,o),
(336,384,o),
(336,319,c),
(355,319,l),
(355,411,o),
(310,487,o),
(218,487,cs),
(126,487,o),
(50,411,o),
(50,319,cs),
(50,158,ls),
(50,66,o),
(126,-10,o),
(218,-10,cs)
);
}
);
width = 436;
}
);
unicode = 103;
},
{
glyphname = h;
lastChange = "2022-08-14 07:06:31 +0000";
layers = (
{
layerId = m01;
shapes = (
{
closed = 1;
nodes = (
(386,0,l),
(386,319,ls),
(386,411,o),
(310,487,o),
(218,487,cs),
(126,487,o),
(81,411,o),
(81,319,c),
(100,319,l),
(100,384,o),
(153,437,o),
(218,437,cs),
(283,437,o),
(336,384,o),
(336,319,cs),
(336,0,l)
);
},
{
closed = 1;
nodes = (
(100,0,l),
(100,677,l),
(50,677,l),
(50,0,l)
);
}
);
width = 436;
}
);
unicode = 104;
},
{
glyphname = i;
lastChange = "2022-08-14 07:06:31 +0000";
layers = (
{
layerId = m01;
shapes = (
{
closed = 1;
nodes = (
(100,0,l),
(100,477,l),
(50,477,l),
(50,0,l)
);
},
{
closed = 1;
nodes = (
(93,556,o),
(108,570,o),
(108,588,cs),
(108,606,o),
(93,621,o),
(75,621,cs),
(57,621,o),
(43,606,o),
(43,588,cs),
(43,570,o),
(57,556,o),
(75,556,cs)
);
}
);
width = 150;
}
);
unicode = 105;
},
{
glyphname = j;
lastChange = "2022-08-14 07:06:31 +0000";
layers = (
{
layerId = m01;
shapes = (
{
closed = 1;
nodes = (
(72,-210,o),
(99,-149,o),
(99,-82,cs),
(99,477,l),
(49,477,l),
(49,-82,ls),
(49,-120,o),
(39,-161,o),
(-28,-161,c),
(-28,-210,l)
);
},
{
closed = 1;
nodes = (
(92,556,o),
(107,570,o),
(107,588,cs),
(107,606,o),
(92,621,o),
(74,621,cs),
(56,621,o),
(42,606,o),
(42,588,cs),
(42,570,o),
(56,556,o),
(74,556,cs)
);
}
);
width = 149;
}
);
unicode = 106;
},
{
glyphname = k;
lastChange = "2022-08-14 07:06:31 +0000";
layers = (
{
layerId = m01;
shapes = (
{
closed = 1;
nodes = (
(375,476,l),
(309,476,l),
(55,177,l),
(93,145,l)
);
},
{
closed = 1;
nodes = (
(377,-2,l),
(196,284,l),
(154,257,l),
(318,-2,l)
);
},
{
closed = 1;
nodes = (
(100,0,l),
(100,677,l),
(50,677,l),
(50,0,l)
);
}
);
width = 407;
}
);
unicode = 107;
},
{
glyphname = l;
lastChange = "2022-08-14 07:06:31 +0000";
layers = (
{
layerId = m01;
shapes = (
{
closed = 1;
nodes = (
(100,0,l),
(100,677,l),
(50,677,l),
(50,0,l)
);
}
);
width = 150;
}
);
unicode = 108;
},
{
glyphname = m;
lastChange = "2022-08-14 07:06:31 +0000";
layers = (
{
layerId = m01;
shapes = (
{
closed = 1;
nodes = (
(652,0,l),
(652,319,ls),
(652,411,o),
(578,487,o),
(489,487,cs),
(387,487,o),
(337,411,o),
(337,319,c),
(376,319,l),
(376,384,o),
(427,437,o),
(489,437,cs),
(551,437,o),
(602,384,o),
(602,319,cs),
(602,0,l)
);
},
{
closed = 1;
nodes = (
(100,0,l),
(100,477,l),
(50,477,l),
(50,0,l)
);
},
{
closed = 1;
nodes = (
(376,0,l),
(376,319,ls),
(376,411,o),
(302,487,o),
(213,487,cs),
(124,487,o),
(81,411,o),
(81,319,c),
(100,319,l),
(100,384,o),
(151,437,o),
(213,437,cs),
(275,437,o),
(326,384,o),
(326,319,cs),
(326,0,l)
);
}
);
width = 702;
}
);
unicode = 109;
},
{
glyphname = n;
lastChange = "2022-08-14 07:06:31 +0000";
layers = (
{
layerId = m01;
shapes = (
{
closed = 1;
nodes = (
(386,0,l),
(386,319,ls),
(386,411,o),
(310,487,o),
(218,487,cs),
(126,487,o),
(81,411,o),
(81,319,c),
(100,319,l),
(100,384,o),
(153,437,o),
(218,437,cs),
(283,437,o),
(336,384,o),
(336,319,cs),
(336,0,l)
);
},
{
closed = 1;
nodes = (
(100,0,l),
(100,477,l),
(50,477,l),
(50,0,l)
);
}
);
width = 436;
}
);
unicode = 110;
},
{
glyphname = o;
lastChange = "2022-08-14 07:06:31 +0000";
layers = (
{
layerId = m01;
shapes = (
{
closed = 1;
nodes = (
(309,-10,o),
(384,65,o),
(384,158,cs),
(384,319,ls),
(384,412,o),
(309,487,o),
(217,487,cs),
(125,487,o),
(50,412,o),
(50,319,cs),
(50,158,ls),
(50,65,o),
(125,-10,o),
(217,-10,cs)
);
},
{
closed = 1;
nodes = (
(153,40,o),
(100,93,o),
(100,158,cs),
(100,319,ls),
(100,384,o),
(153,437,o),
(217,437,cs),
(281,437,o),
(334,384,o),
(334,319,cs),
(334,158,ls),
(334,93,o),
(281,40,o),
(217,40,cs)
);
}
);
width = 434;
}
);
unicode = 111;
},
{
glyphname = p;
lastChange = "2022-08-14 07:06:31 +0000";
layers = (
{
layerId = m01;
shapes = (
{
closed = 1;
nodes = (
(310,-10,o),
(386,66,o),
(386,158,cs),
(386,319,ls),
(386,411,o),
(310,487,o),
(218,487,cs),
(126,487,o),
(81,411,o),
(81,319,c),
(100,319,l),
(100,384,o),
(153,437,o),
(218,437,cs),
(283,437,o),
(336,384,o),
(336,319,cs),
(336,158,ls),
(336,93,o),
(283,40,o),
(218,40,cs),
(153,40,o),
(100,93,o),
(100,158,c),
(81,158,l),
(81,66,o),
(126,-10,o),
(218,-10,cs)
);
},
{
closed = 1;
nodes = (
(100,-200,l),
(100,477,l),
(50,477,l),
(50,-200,l)
);
}
);
width = 436;
}
);
unicode = 112;
},
{
glyphname = q;
lastChange = "2022-08-14 07:06:31 +0000";
layers = (
{
layerId = m01;
shapes = (
{
closed = 1;
nodes = (
(310,-10,o),
(355,66,o),
(355,158,c),
(336,158,l),
(336,93,o),
(283,40,o),
(218,40,cs),
(153,40,o),
(100,93,o),
(100,158,cs),
(100,319,ls),
(100,384,o),
(153,437,o),
(218,437,cs),
(283,437,o),
(336,384,o),
(336,319,c),
(355,319,l),
(355,411,o),
(310,487,o),
(218,487,cs),
(126,487,o),
(50,411,o),
(50,319,cs),
(50,158,ls),
(50,66,o),
(126,-10,o),
(218,-10,cs)
);
},
{
closed = 1;
nodes = (
(386,-200,l),
(386,477,l),
(336,477,l),
(336,-200,l)
);
}
);
width = 436;
}
);
unicode = 113;
},
{
glyphname = r;
lastChange = "2022-08-14 07:06:31 +0000";
layers = (
{
layerId = m01;
shapes = (
{
closed = 1;
nodes = (
(100,314,l),
(100,379,o),
(153,432,o),
(248,432,cs),
(260,432,l),
(260,482,l),
(248,482,ls),
(126,482,o),
(81,406,o),
(81,314,c)
);
},
{
closed = 1;
nodes = (
(100,0,l),
(100,477,l),
(50,477,l),
(50,0,l)
);
}
);
width = 285;
}
);
unicode = 114;
},
{
glyphname = s;
lastChange = "2022-08-14 07:06:31 +0000";
layers = (
{
layerId = m01;
shapes = (
{
closed = 1;
nodes = (
(283,-10,o),
(341,53,o),
(341,125,cs),
(341,191,o),
(287,245,o),
(188,266,cs),
(123,279,o),
(85,298,o),
(85,347,cs),
(85,401,o),
(122,437,o),
(185,437,cs),
(244,437,o),
(278,403,o),
(285,363,c),
(335,363,l),
(330,428,o),
(275,487,o),
(185,487,cs),
(95,487,o),
(35,429,o),
(35,347,cs),
(35,277,o),
(85,238,o),
(179,218,cs),
(247,204,o),
(291,174,o),
(291,125,cs),
(291,78,o),
(253,40,o),
(185,40,cs),
(124,40,o),
(89,74,o),
(83,114,c),
(30,114,l),
(36,49,o),
(93,-10,o),
(185,-10,cs)
);
}
);
width = 371;
}
);
unicode = 115;
},
{
glyphname = t;
lastChange = "2022-08-14 07:06:31 +0000";
layers = (
{
layerId = m01;
shapes = (
{
closed = 1;
nodes = (
(251,39,l),
(164,39,o),
(154,70,o),
(154,108,cs),
(154,607,l),
(104,607,l),
(104,108,ls),
(104,41,o),
(131,-10,o),
(251,-10,c)
);
},
{
closed = 1;
nodes = (
(251,427,l),
(251,477,l),
(30,477,l),
(30,427,l)
);
}
);
width = 281;
}
);
unicode = 116;
},
{
glyphname = u;
lastChange = "2022-08-14 07:06:31 +0000";
layers = (
{
layerId = m01;
shapes = (
{
closed = 1;
nodes = (
(310,-10,o),
(355,66,o),
(355,158,c),
(336,158,l),
(336,93,o),
(283,40,o),
(218,40,cs),
(153,40,o),
(100,93,o),
(100,158,cs),
(100,477,l),
(50,477,l),
(50,158,ls),
(50,66,o),
(126,-10,o),
(218,-10,cs)
);
},
{
closed = 1;
nodes = (
(386,0,l),
(386,477,l),
(336,477,l),
(336,0,l)
);
}
);
width = 436;
}
);
unicode = 117;
},
{
glyphname = v;
lastChange = "2022-08-14 07:06:31 +0000";
layers = (
{
layerId = m01;
shapes = (
{
closed = 1;
nodes = (
(234,0,l),
(389,477,l),
(337,477,l),
(182,0,l)
);
},
{
closed = 1;
nodes = (
(227,0,l),
(72,477,l),
(20,477,l),
(175,0,l)
);
}
);
width = 409;
}
);
unicode = 118;
},
{
glyphname = w;
lastChange = "2022-08-14 07:06:31 +0000";
layers = (
{
layerId = m01;
shapes = (
{
closed = 1;
nodes = (
(486,0,l),
(611,477,l),
(559,477,l),
(434,0,l)
);
},
{
closed = 1;
nodes = (
(207,0,l),
(82,477,l),
(30,477,l),
(155,0,l)
);
},
{
closed = 1;
nodes = (
(214,0,l),
(336,477,l),
(284,477,l),
(162,0,l)
);
},
{
closed = 1;
nodes = (
(479,0,l),
(357,477,l),
(305,477,l),
(427,0,l)
);
}
);
width = 641;
}
);
unicode = 119;
},
{
glyphname = x;
lastChange = "2022-08-14 07:06:31 +0000";
layers = (
{
layerId = m01;
shapes = (
{
closed = 1;
nodes = (
(365,0,l),
(88,477,l),
(30,477,l),
(307,0,l)
);
},
{
closed = 1;
nodes = (
(88,0,l),
(223,246,l),
(165,246,l),
(30,0,l)
);
},
{
closed = 1;
nodes = (
(229,232,l),
(365,477,l),
(307,477,l),
(171,232,l)
);
}
);
width = 395;
}
);
unicode = 120;
},
{
glyphname = y;
lastChange = "2022-08-14 07:06:31 +0000";
layers = (
{
layerId = m01;
shapes = (
{
closed = 1;
nodes = (
(175,-200,l),
(399,477,l),
(347,477,l),
(122,-200,l)
);
},
{
closed = 1;
nodes = (
(238,0,l),
(83,477,l),
(30,477,l),
(193,-25,l)
);
}
);
width = 429;
}
);
unicode = 121;
},
{
glyphname = z;
lastChange = "2022-08-14 07:06:31 +0000";
layers = (
{
layerId = m01;
shapes = (
{
closed = 1;
nodes = (
(341,2,l),
(341,52,l),
(92,52,l),
(341,437,l),
(341,477,l),
(30,477,l),
(30,427,l),
(279,427,l),
(30,42,l),
(30,2,l)
);
}
);
width = 371;
}
);
unicode = 122;
},
{
glyphname = zero;
lastChange = "2022-08-14 07:08:07 +0000";
layers = (
{
layerId = m01;
shapes = (
{
closed = 1;
nodes = (
(342,-10,o),
(424,74,o),
(424,176,cs),
(424,475,ls),
(424,578,o),
(342,660,o),
(240,660,cs),
(139,660,o),
(55,578,o),
(55,475,cs),
(55,176,ls),
(55,73,o),
(138,-10,o),
(240,-10,cs)
);
},
{
closed = 1;
nodes = (
(169,45,o),
(110,104,o),
(110,176,cs),
(110,475,ls),
(110,547,o),
(169,605,o),
(240,605,cs),
(311,605,o),
(369,547,o),
(369,475,cs),
(369,176,ls),
(369,104,o),
(311,45,o),
(240,45,cs)
);
},
{
closed = 1;
nodes = (
(413,425,l),
(379,469,l),
(67,225,l),
(101,181,l)
);
}
);
width = 479;
}
);
unicode = 48;
},
{
glyphname = one;
lastChange = "2022-08-14 07:06:31 +0000";
layers = (
{
layerId = m01;
shapes = (
{
closed = 1;
nodes = (
(295,2,l),
(295,652,l),
(240,652,l),
(99,578,l),
(99,522,l),
(240,596,l),
(240,2,l)
);
}
);
width = 479;
}
);
unicode = 49;
},
{
glyphname = two;
lastChange = "2022-08-14 07:06:31 +0000";
layers = (
{
layerId = m01;
shapes = (
{
closed = 1;
nodes = (
(424,0,l),
(424,50,l),
(128,50,l),
(359,328,ls),
(406,384,o),
(424,428,o),
(424,475,cs),
(424,578,o),
(342,660,o),
(240,660,cs),
(139,660,o),
(55,578,o),
(55,475,c),
(110,475,l),
(110,547,o),
(169,605,o),
(240,605,cs),
(311,605,o),
(369,547,o),
(369,475,cs),
(369,441,o),
(356,410,o),
(317,362,cs),
(61,50,l),
(61,0,l)
);
}
);
width = 479;
}
);
unicode = 50;
},
{
glyphname = three;
lastChange = "2022-08-14 07:06:31 +0000";
layers = (
{
layerId = m01;
shapes = (
{
closed = 1;
nodes = (
(342,-10,o),
(424,72,o),
(424,165,cs),
(424,216,ls),
(424,263,o),
(368,349,o),
(308,349,c),
(308,336,l),
(368,336,o),
(424,422,o),
(424,469,cs),
(424,485,ls),
(424,578,o),
(342,660,o),
(240,660,cs),
(139,660,o),
(55,578,o),
(55,475,c),
(110,475,l),
(110,547,o),
(169,605,o),
(240,605,cs),
(311,605,o),
(369,547,o),
(369,485,cs),
(369,469,ls),
(369,431,o),
(324,368,o),
(256,368,c),
(256,313,l),
(324,313,o),
(369,254,o),
(369,216,cs),
(369,165,ls),
(369,103,o),
(311,45,o),
(240,45,cs),
(169,45,o),
(110,103,o),
(110,175,c),
(55,175,l),
(55,72,o),
(139,-10,o),
(240,-10,cs)
);
},
{
closed = 1;
nodes = (
(256,313,l),
(256,368,l),
(219,368,l),
(219,313,l)
);
}
);
width = 479;
}
);
unicode = 51;
},
{
glyphname = four;
lastChange = "2022-08-14 07:06:31 +0000";
layers = (
{
layerId = m01;
shapes = (
{
closed = 1;
nodes = (
(110,174,l),
(300,650,l),
(240,650,l),
(50,174,l)
);
},
{
closed = 1;
nodes = (
(428,119,l),
(428,174,l),
(50,174,l),
(50,119,l)
);
},
{
closed = 1;
nodes = (
(368,0,l),
(368,401,l),
(313,401,l),
(313,0,l)
);
}
);
width = 479;
}
);
unicode = 52;
},
{
glyphname = five;
lastChange = "2022-08-14 07:06:31 +0000";
layers = (
{
layerId = m01;
shapes = (
{
closed = 1;
nodes = (
(342,-10,o),
(424,72,o),
(424,165,cs),
(424,275,ls),
(424,378,o),
(340,460,o),
(239,460,cs),
(150,460,o),
(106,388,o),
(106,316,c),
(122,316,l),
(122,355,o),
(179,405,o),
(239,405,cs),
(310,405,o),
(369,347,o),
(369,275,cs),
(369,165,ls),
(369,103,o),
(311,45,o),
(240,45,cs),
(169,45,o),
(110,103,o),
(110,175,c),
(55,175,l),
(55,72,o),
(139,-10,o),
(240,-10,cs)
);
},
{
closed = 1;
nodes = (
(120,316,l),
(120,602,l),
(65,602,l),
(65,316,l)
);
},
{
closed = 1;
nodes = (
(408,593,l),
(408,648,l),
(65,648,l),
(65,593,l)
);
}
);
width = 479;
}
);
unicode = 53;
},
{
glyphname = six;
lastChange = "2022-08-14 01:08:58 +0000";
layers = (
{
layerId = m01;
shapes = (
{
closed = 1;
nodes = (
(342,-10,o),
(424,72,o),
(424,165,cs),
(424,249,ls),
(424,351,o),
(341,434,o),
(239,434,cs),
(141,434,o),
(94,357,o),
(94,249,c),
(110,249,l),
(110,321,o),
(168,379,o),
(239,379,cs),
(311,379,o),
(369,321,o),
(369,249,cs),
(369,165,ls),
(369,103,o),
(311,45,o),
(240,45,cs),
(169,45,o),
(110,103,o),
(110,175,cs),
(110,475,ls),
(110,547,o),
(169,605,o),
(240,605,cs),
(308,605,o),
(364,547,o),
(364,485,c),
(419,485,l),
(419,578,o),
(339,660,o),
(240,660,cs),
(139,660,o),
(55,578,o),
(55,475,cs),
(55,175,ls),
(55,72,o),
(139,-10,o),
(240,-10,cs)
);
}
);
width = 479;
}
);
unicode = 54;
},
{
glyphname = seven;
lastChange = "2022-08-14 07:06:31 +0000";
layers = (
{
layerId = m01;
shapes = (
{
closed = 1;
nodes = (
(187,0,l),
(418,595,l),
(360,595,l),
(129,0,l)
);
},
{
closed = 1;
nodes = (
(418,595,l),
(418,650,l),
(59,650,l),
(59,595,l)
);
}
);
width = 479;
}
);
unicode = 55;
},
{
glyphname = eight;
lastChange = "2022-08-14 07:06:31 +0000";
layers = (
{
layerId = m01;
shapes = (
{
closed = 1;
nodes = (
(340,-10,o),
(424,67,o),
(424,166,cs),
(424,187,ls),
(424,295,o),
(330,357,o),
(240,357,cs),
(149,357,o),
(55,295,o),
(55,187,cs),
(55,166,ls),
(55,67,o),
(139,-10,o),
(240,-10,cs)
);
},
{
closed = 1;
nodes = (
(168,45,o),
(110,99,o),
(110,166,cs),
(110,187,ls),
(110,253,o),
(168,307,o),
(240,307,cs),
(311,307,o),
(369,253,o),
(369,187,cs),
(369,166,ls),
(369,99,o),
(311,45,o),
(240,45,cs)
);
},
{
closed = 1;
nodes = (
(329,312,o),
(419,377,o),
(419,487,cs),
(419,586,o),
(339,666,o),
(240,666,cs),
(140,666,o),
(60,586,o),
(60,487,cs),
(60,377,o),
(150,312,o),
(240,312,cs)
);
},
{
closed = 1;
nodes = (
(171,362,o),
(115,418,o),
(115,487,cs),
(115,555,o),
(171,611,o),
(240,611,cs),
(308,611,o),
(364,555,o),
(364,487,cs),
(364,418,o),
(308,362,o),
(240,362,cs)
);
}
);
width = 479;
}
);
unicode = 56;
},
{
glyphname = nine;
lastChange = "2022-08-14 07:06:31 +0000";
layers = (
{
layerId = m01;
shapes = (
{
closed = 1;
nodes = (
(340,-10,o),
(424,72,o),
(424,175,cs),
(424,475,ls),
(424,578,o),
(340,660,o),
(239,660,cs),
(137,660,o),
(55,578,o),
(55,485,cs),
(55,401,ls),
(55,299,o),
(138,216,o),
(240,216,cs),
(338,216,o),
(385,293,o),
(385,401,c),
(369,401,l),
(369,329,o),
(311,271,o),
(240,271,cs),
(168,271,o),
(110,329,o),
(110,401,cs),
(110,485,ls),
(110,547,o),
(168,605,o),
(239,605,cs),
(310,605,o),
(369,547,o),
(369,475,cs),
(369,175,ls),
(369,103,o),
(310,45,o),
(239,45,cs),
(171,45,o),
(115,103,o),
(115,165,c),
(60,165,l),
(60,72,o),
(140,-10,o),
(239,-10,cs)
);
}
);
width = 479;
}
);
unicode = 57;
},
{
glyphname = .notdef;
lastChange = "2022-08-14 05:12:08 +0000";
layers = (
{
layerId = m01;
shapes = (
{
closed = 1;
nodes = (
(650,0,l),
(650,650,l),
(0,650,l),
(0,0,l)
);
},
{
closed = 1;
nodes = (
(55,595,l),
(595,595,l),
(595,55,l),
(55,55,l)
);
},
{
closed = 1;
nodes = (
(546,508,l),
(508,546,l),
(105,143,l),
(143,105,l)
);
}
);
width = 650;
}
);
},
{
glyphname = exclam;
lastChange = "2022-08-14 07:06:31 +0000";
layers = (
{
layerId = m01;
shapes = (
{
closed = 1;
nodes = (
(105,169,l),
(105,650,l),
(50,650,l),
(50,169,l)
);
},
{
closed = 1;
nodes = (
(99,-10,o),
(116,8,o),
(116,29,cs),
(116,50,o),
(99,67,o),
(78,67,cs),
(57,67,o),
(39,50,o),
(39,29,cs),
(39,8,o),
(57,-10,o),
(78,-10,cs)
);
}
);
width = 155;
}
);
unicode = 33;
},
{
glyphname = question;
lastChange = "2022-08-14 07:06:31 +0000";
layers = (
{
layerId = m01;
shapes = (
{
closed = 1;
nodes = (
(255,169,l),
(255,231,ls),
(255,334,o),
(424,350,o),
(424,481,cs),
(424,575,o),
(342,660,o),
(240,660,cs),
(139,660,o),
(55,578,o),
(55,475,c),
(110,475,l),
(110,547,o),
(169,605,o),
(239,605,cs),
(311,605,o),
(369,545,o),
(369,480,cs),
(369,372,o),
(200,361,o),
(200,231,cs),
(200,169,l)
);
},
{
closed = 1;
nodes = (
(249,-10,o),
(266,8,o),
(266,29,cs),
(266,50,o),
(249,67,o),
(228,67,cs),
(207,67,o),
(189,50,o),
(189,29,cs),
(189,8,o),
(207,-10,o),
(228,-10,cs)
);
}
);
width = 479;
}
);
unicode = 63;
},
{
glyphname = numbersign;
lastChange = "2022-08-14 07:06:31 +0000";
layers = (
{
layerId = m01;
shapes = (
{
closed = 1;
nodes = (
(326,0,l),
(410,677,l),
(354,677,l),
(270,0,l)
);
},
{
closed = 1;
nodes = (
(447,153,l),
(447,208,l),
(24,208,l),
(24,153,l)
);
},
{
closed = 1;
nodes = (
(125,0,l),
(209,677,l),
(153,677,l),
(69,0,l)
);
},
{
closed = 1;
nodes = (
(455,470,l),
(455,525,l),
(32,525,l),
(32,470,l)
);
}
);
width = 479;
}
);
unicode = 35;
},
{
glyphname = slash;
lastChange = "2022-08-14 07:06:31 +0000";
layers = (
{
layerId = m01;
shapes = (
{
closed = 1;
nodes = (
(79,-200,l),
(379,677,l),
(321,677,l),
(21,-200,l)
);
}
);
width = 400;
}
);
unicode = 47;
},
{
glyphname = backslash;
lastChange = "2022-08-14 07:06:31 +0000";
layers = (
{
layerId = m01;
shapes = (
{
closed = 1;
nodes = (
(79,677,l),
(21,677,l),
(321,-200,l),
(379,-200,l)
);
}
);
width = 400;
}
);
unicode = 92;
},
{
glyphname = bracketleft;
lastChange = "2022-08-14 07:06:31 +0000";
layers = (
{
layerId = m01;
shapes = (
{
closed = 1;
nodes = (
(252,-200,l),
(252,-145,l),
(105,-145,l),
(105,622,l),
(252,622,l),
(252,677,l),
(50,677,l),
(50,-200,l)
);
}
);
width = 282;
}
);
unicode = 91;
},
{
glyphname = bracketright;
lastChange = "2022-08-14 07:06:31 +0000";
layers = (
{
layerId = m01;
shapes = (
{
closed = 1;
nodes = (
(232,-200,l),
(232,677,l),
(30,677,l),
(30,622,l),
(177,622,l),
(177,-145,l),
(30,-145,l),
(30,-200,l)
);
}
);
width = 282;
}
);
unicode = 93;
},
{
glyphname = at;
lastChange = "2022-08-14 07:06:31 +0000";
layers = (
{
layerId = m01;
shapes = (
{
closed = 1;
nodes = (
(424,0,l),
(424,55,l),
(240,55,ls),
(168,55,o),
(110,114,o),
(110,186,cs),
(110,475,ls),
(110,547,o),
(169,605,o),
(240,605,cs),
(311,605,o),
(369,547,o),
(369,475,cs),
(369,176,l),
(424,176,l),
(424,475,ls),
(424,578,o),
(342,660,o),
(240,660,cs),
(139,660,o),
(55,578,o),
(55,475,cs),
(55,186,ls),
(55,84,o),
(137,0,o),
(240,0,cs)
);
},
{
closed = 1;
nodes = (
(374,170,o),
(389,230,o),
(389,281,c),
(369,281,l),
(369,250,o),
(344,225,o),
(313,225,cs),
(283,225,o),
(258,250,o),
(258,281,cs),
(258,360,ls),
(258,390,o),
(283,416,o),
(313,416,cs),
(344,416,o),
(369,390,o),
(369,360,c),
(389,360,l),
(389,410,o),
(374,471,o),
(313,471,cs),
(253,471,o),
(203,420,o),
(203,360,cs),
(203,281,ls),
(203,220,o),
(253,170,o),
(313,170,cs)
);
}
);
width = 479;
}
);
unicode = 64;
},
{
glyphname = bar;
lastChange = "2022-08-14 07:06:31 +0000";
layers = (
{
layerId = m01;
shapes = (
{
closed = 1;
nodes = (
(105,-200,l),
(105,677,l),
(50,677,l),
(50,-200,l)
);
}
);
width = 155;
}
);
unicode = 124;
},
{
glyphname = dollar;
lastChange = "2022-08-14 07:06:31 +0000";
layers = (
{
layerId = m01;
shapes = (
{
closed = 1;
nodes = (
(267,-64,l),
(267,721,l),
(212,721,l),
(212,-64,l)
);
},
{
ref = S;
}
);
width = 479;
}
);
unicode = 36;
},
